<?xml version="1.0" ?><svg width="90px" height="90px" viewBox="0 0 220.9361 153.20642" xmlns="http://www.w3.org/2000/svg">
    <path d="m 48785.414,1851.1094 -107.963,135.3886 99.672,38.7344 -30.939,88.459 c -16.441,-29.9986 -35.213,-64.1029 -39.264,-70.5684 -6.637,-10.5922 -16.105,-16.1666 -27.875,-5.9726 0,0 -3.717,6.0518 -2.035,15.1308 1.219,6.5845 34.779,71.5579 53.236,106.9747 l -31.203,85.1992 c 0,0 262.826,11.2289 302.383,16.6445 39.556,5.4155 249.285,15.9277 249.285,15.9277 l 107.963,-320.6328 c 0,0 -286.719,-18.6375 -314.949,-18.7968 -28.229,-0.1593 -140.616,-13.1407 -140.616,-13.1407 l 17.256,-32.8906 z m 653.943,354.9785 -302.933,164.7226 c 0,0 48.729,42.1983 50.201,44.2325 1.472,2.0341 307.506,-160.3711 307.506,-160.3711 z" fill="#FFD144" paint-order="markers stroke fill" transform="translate(4.7216106,-90.278566) matrix(0.26458333,0,0,0.26458333,-12005.127,246.95588) translate(-3313.5291,-2437.8203)"/>
    <path d="m 45863.639,-20.949741 c -4.148,-2.5815 -15.672,-12.6236 -25.61,-22.318 -14.881,-14.515 -26.943,-25.6381 -24.357,-27.9575 1.728,-1.5489 21.595,-9.9181 38.534,-18.9845 85.18,-45.592599 158.127,-82.236399 236.981,-128.887999 6.514,-3.8536 22.276,-11.9424 28.451,-14.2245 13.285,-4.9111 18.732,-1.8351 41.647,18.7142 27.022,24.2305 32.832,28.8799 31.416,32.467 -2.301,5.8305 -52.452,34.9161 -113.188,65.7206 -31.842,16.1508 -64.824,32.885899 -73.295,37.190799 -8.47,4.3043 -31.923,16.5342 -52.119,27.178 -45.463,23.9597 -66.356,35.1475 -70.313,37.8289 -5.975,4.0489 -13.999,-4.1469 -18.147,-6.727 z m 101.923,-55.9193 c 15.636,-7.9848 54.548,-27.835199 86.47,-44.111599 31.924,-16.2764 68.171,-35.4637 80.55,-42.6379 12.377,-7.1735 25.607,-14.7499 29.398,-16.8351 l 6.893,-3.7916 -15.185,-15.0693 c -22.545,-22.3735 -25.357,-24.2992 -29.649,-20.3148 -3.117,2.8904 -2.419,4.1115 6.064,10.6029 5.271,4.034 9.586,8.7903 9.586,10.5678 0,5.9007 -7.974,2.7692 -16.97,-6.6659 -7.662,-8.0345 -9.402,-8.916 -12.688,-6.4257 -3.441,2.6063 -3.449,3.1124 -0.107,5.2258 3.625,2.2902 5.257,9.3242 2.114,9.0971 -0.876,-0.058 -3.5,-1.9813 -5.835,-4.2634 -2.569,-2.5099 -5.915,-3.6243 -8.479,-2.8225 -4.015,1.2575 -4.021,1.4606 -0.09,3.9523 2.282,1.4452 4.148,4.1742 4.148,6.0634 0,4.4642 -2.177,4.1882 -7.425,-0.9413 -2.426,-2.3697 -5.958,-3.6149 -8.241,-2.9036 -3.588,1.1166 -3.457,1.8586 1.273,7.2364 7.028,7.9884 1.876,11.0388 -5.698,3.376 -4.622,-4.6767 -6.357,-5.2032 -10.632,-3.2242 -4.961,2.296 -4.795,2.667 5.697,12.6616 5.946,5.664 10.811,11.2718 10.811,12.4644 0,5.3492 -9.454,0.6426 -17.225,-8.5735 -7.843,-9.3045 -9.011,-9.9274 -14.619,-7.7767 -5.504,2.1098 -5.749,2.7422 -2.525,6.5389 5.519,6.4958 4.225,8.4047 -2.419,3.5696 -6.865,-4.9937 -13.183,-3.5419 -6.823,1.5679 2.951,2.3712 3.283,3.6784 1.222,4.8023 -1.556,0.8508 -4.371,0.157 -6.251,-1.5394 -1.882,-1.6972 -5.177,-2.537 -7.326,-1.8681 -3.574,1.1137 -3.547,1.6409 0.351,6.2271 5.563,6.5506 2.819,8.9021 -4.326,3.7039 -6.723,-4.8914 -13.445,-2.8137 -7.689,2.3771 2.015,1.8191 3.666,4.2436 3.666,5.3865 0,3.2644 -5.158,2.063 -9.544,-2.2244 -3.387,-3.3089 -4.406,-3.4338 -6.717,-0.8179 -2.172,2.461 -0.804,4.5518 6.768,10.348 5.329,4.0771 9.493,9.2 9.493,11.6793 0,6.8829 -4.885,4.9067 -15.487,-6.2658 -6.837,-7.2041 -10.966,-9.8843 -13.849,-8.9867 -2.364,0.7361 -3.543,2.7852 -2.777,4.8359 1.95,5.22 -0.876,8.439 -4.52,5.1499 -3.146,-2.8386 -10.749,-1.7658 -10.749,1.5175 0,1.0253 1.776,2.6735 3.949,3.6645 2.673,1.2181 3.172,2.5224 1.544,4.0319 -1.625,1.5087 -4.44,1.156 -8.697,-1.0918 -7.838,-4.1385 -10.689,-1.9513 -5.469,4.194 2.164,2.5472 3.933,5.8794 3.933,7.4064 0,4.5928 -6.591,2.6488 -10.402,-3.0686 -3.431,-5.1462 -3.801,-5.2117 -9.748,-1.7453 l -6.181,3.6031 6.227,5.3493 c 4.477,3.846 5.507,6.0204 3.658,7.7344 -1.847,1.7132 -4.326,0.5002 -8.819,-4.3167 -5.831,-6.2526 -6.614,-6.4848 -11.739,-3.4987 l -5.495,3.2015 11.844,10.2188 c 6.516,5.621499 11.217,11.189299 10.451,12.375199 -2.441,3.7712 -5.699,2.0864 -16.241,-8.3923 -11.469,-11.402499 -16.876,-13.480899 -14.411,-5.540599 1.435,4.631399 0.913,4.898699 -5.764,2.948799 -5.699,-1.663499 -7.344,-1.337099 -7.344,1.4577 0,1.9819 1.065,4.3385 2.37,5.2382 3.532,2.4392 2.859,6.1293 -1.068,5.8452 -1.888,-0.1366 -4.422,-2.0835 -5.628,-4.3269 -1.337,-2.4829 -3.719,-3.6032 -6.095,-2.8627 -3.253,1.0129 -3.415,2.0251 -0.976,6.1102 4.064,6.7996 0.593,8.989 -5.227,3.2994 -3.632,-3.5484 -5.478,-4.0786 -7.54,-2.166 -2.062,1.9126 -1.758,3.6792 1.24,7.2086 2.186,2.572 3.973,5.3916 3.973,6.2658 0,3.2804 -6.526,0.9508 -10.527,-3.7595 -3.931,-4.6292 -4.582,-4.7161 -12.213,-1.6293 -4.433,1.7936 -8.06,3.8866 -8.06,4.6526 0,0.7646 3.67,3.6324 8.154,6.371 8.89,5.431 12.296,11.2433 8.596,14.6742 -1.565,1.4525 -6.115,-1.0107 -13.528,-7.3225 -10.88,-9.2621 -14.589,-10.1823 -23.838,-5.9116 -4.379,2.436 23.065,25.0757 36.438,35.5887 4.624,5.1685 65.444,-34.0671 91.974,-46.6992 z m -575.195,-107.238099 c -3.76,-0.2181 -14.817,2.0407 -14.238,-7.6154 0.175,-2.9262 17.821,-49.2742 25.226,-67.6194 7.404,-18.3452 17.569,-7.8998 14.497,0.3259 -3.742,10.0197 -7.459,34.5201 -16.231,54.3165 -1.819,4.1056 -0.515,4.3378 29.852,5.312 17.464,0.5594 43.478,0.5492 57.812,-0.029 34.167,-1.3678 173.564,8.5881 210.665,15.0466 40.871,7.1137 228.867,20.6165 231.482,16.6255 1.061,-1.6176 3.04,-8.7224 4.399,-15.7908 1.362,-7.0683 13.063,-44.6009 26.004,-83.4056 12.943,-38.8055 25.323,-76.2891 27.515,-83.2968 3.417,-10.9242 27.637,-72.9518 43.902,-112.4364 2.762,-6.7061 4.408,-12.8543 3.655,-13.662 -0.754,-0.8069 -44.321,-5.0864 -96.817,-9.5089 -72.004,-6.0672 -110.317,-8.1813 -156.001,-8.6085 -99.685,-0.9326 -182.275,-8.4559 -182.275,-16.6051 0,-0.961 15.792,-5.6024 35.012,-4.9876 19.219,0.6157 63.728,1.4708 98.909,1.9017 88.051,1.0801 196.651,7.3926 250.454,14.5595 50.465,6.7215 65.183,13.0059 67.009,17.8966 1.77,4.7388 -11.239,45.5802 -27.872,87.4945 -7.539,19.0003 -18.532,49.6544 -24.43,68.1216 -5.895,18.4673 -17.055,52.3477 -24.796,75.2901 -7.744,22.9416 -15.922,49.5354 -18.177,59.0969 -7.625,32.3184 -8.457,34.751 -12.53,36.5482 -6.672,2.9437 -139.3,2.5327 -201.673,-4.4465 -113.818,-12.7331 -187.349,-18.7762 -234.537,-19.2713 -39.007,-0.079 -77.902,-2.9947 -116.816,-5.2523 z m 455.831,-1.0225 c -2.644,-1.8987 -1.277,-2.3982 5.33,-1.9476 4.887,0.3308 8.885,1.6731 8.885,2.9751 0,3.0183 -9.546,2.3274 -14.215,-1.0275 z m -400.556,-47.5461 c -3.822,-4.3816 -11.031,-12.422 -16.846,-19.3567 -6.976,-8.3193 -20.071,-31.8423 -38.477,-69.117 -15.346,-31.0777 -29.39,-58.2966 -31.21,-60.4852 -6.241,-7.508 -3.064,-23.2338 5.964,-29.512 4.026,-2.8006 18.639,-2.6487 25.015,0.2586 2.132,0.9727 6.801,7.9731 10.373,15.5578 3.573,7.5832 13.285,26.9574 21.581,43.0534 11.858,17.1626 5.927,18.0841 15.289,-2.3781 11.016,-24.0781 16.399,-51.4707 23.098,-46.235 0.908,0.7092 7.401,7.3715 8.052,9.1168 1.319,3.5273 -20.865,65.0173 -25.243,69.9759 -2.173,2.461 -1.358,6.4476 3.759,18.3949 3.595,8.3895 8.456,17.5245 10.803,20.2995 2.862,3.3841 5.525,13.6314 8.082,31.0981 3.56,24.3307 3.547,26.3243 -0.198,30.1911 -4.085,3.9975 -12.166,-1.8322 -20.042,-10.8621 z m 9.169,-36.96 c -1.19,-5.897 -13.578,-5.3887 -19.13,0.785 -4.071,4.5255 -4.044,4.8987 0.694,10.2867 l 4.919,5.5895 c 4.361,-3.4094 7.317,-9.188 14.937,-7.1059 3.888,1.0627 -0.922,-7.0914 -1.42,-9.5553 z m -52.666,-69.564 c -25.695,-53.947 -31.914,-63.6604 -33.993,-53.0962 -0.375,1.9009 4.277,11.2075 10.337,20.6843 6.061,9.4754 19.16,34.4713 29.109,55.5463 9.95,21.0758 19.012,37.5487 20.139,36.6074 1.128,-0.9421 -10.389,-27.8265 -25.592,-59.7418 z m 38.943,51.4823 c 0,-1.221 -6.432,-14.2126 -14.292,-28.8693 -7.862,-14.6574 -19.854,-38.2453 -26.653,-52.4185 -11.581,-24.1459 -14.858,-29.3769 -18.631,-29.7391 -0.842,-0.081 10.713,25.2581 25.682,56.3095 16.202,33.6117 28.565,56.5541 30.554,56.6972 1.837,0.1336 3.34,-0.7573 3.34,-1.9798 z m 424.063,95.5502 c -1.954,-0.5558 -7.582,-1.9586 -12.503,-3.1183 -4.924,-1.1604 -8.324,-3.0767 -7.561,-4.2583 1.984,-3.0635 38.36,-0.09 40.363,3.3031 3.16,5.3405 -7.97,7.5737 -20.299,4.0735 z m -335.159,-46.7219 c 2.104,-6.7025 38.68,-107.2718 41.606,-114.3978 1.681,-4.091 4.118,-3.5943 -15.354,-3.9806 -11.346,-0.2249 -21.131,-1.2561 -21.745,-2.2909 -0.61,-1.0348 1.759,-7.5313 5.271,-14.4353 l 6.384,-12.555 17.947,-0.2147 c 9.87,-0.119 17.012,-0.5038 18.316,-0.8544 2.77,-0.7478 14.203,-25.8759 12.571,-27.6278 -0.608,-0.6521 -9.055,-2.2412 -20.557,-3.0175 -12.332,-0.8311 -21.76,-1.592 -22.567,-2.4574 -3.536,-3.7901 -9.563,-13.489 164.883,7.2823 91.505,10.895 139.709,11.4197 190.371,16.8393 29.11,3.1141 39.769,3.4069 41.661,5.4371 4.681,5.0163 -2.325,8.063 -16.679,7.2524 -7.504,-0.4236 -39.498,-2.4063 -71.096,-4.4065 -52.923,-3.3505 -54.114,-5.1693 -54.144,-1.3521 -0.01,2.2785 -3.145,12.869 -6.952,23.5317 l -6.394,16.5281 18.195,1.888 c 11.778,1.2222 24.595,0.2505 28.335,0.5207 5.17,0.3739 5.578,-0.1486 7.681,-4.9487 3.432,-7.9295 8.707,-11.4599 7.069,-3.5442 l -1.325,10.4888 47.027,2.7054 c 32.022,1.8421 47.369,2.5019 48.423,4.2845 0.849,1.4343 0.594,4.4894 -0.63,5.1576 -1.224,0.6675 -23.669,-0.3118 -49.88,-2.1769 l -47.654,-3.3907 -2.45,6.2555 c -1.348,3.4404 -3.074,9.3096 -3.834,13.0435 -1.276,6.2592 -0.94,6.7003 4.318,5.6662 3.135,-0.6171 22.638,-0.6134 43.339,0 31.003,0.9304 37.452,1.6782 36.575,4.24 -0.636,1.8622 -4.786,2.9058 -10.332,2.5983 -9.187,-0.5082 -9.29,-0.4104 -11.699,11.1572 -1.339,6.4177 -3.295,12.9398 -4.349,14.4916 -1.391,2.0506 -11.584,2.1237 -37.252,0.268 l -35.335,-2.5559 -3.614,6.728 c -1.988,3.701 -3.614,7.8191 -3.614,9.1518 0,1.5132 13.132,3.6193 34.943,5.6064 29.19,2.6582 34.944,3.7675 34.944,6.736 0,3.0438 -5.347,3.0453 -37.29,0.015 -29.84,-2.8349 -37.515,-2.9174 -38.416,-0.4096 -8.048,22.3983 -11.606,29.6193 -14.488,29.4119 -4.465,-0.3236 -4.282,-2.6342 1.352,-17.0527 2.607,-6.6667 4.739,-12.9201 4.739,-13.8972 0,-0.9778 -11.591,-2.6151 -25.762,-3.6404 l -23.485,-0.9566 -5.217,16.7985 c -6.175,19.8837 -10.025,22.2018 -14.071,23.2578 -3.959,1.0341 -1.406,-15.154 4.826,-30.5905 l 4.415,-10.9338 -46.754,-3.3453 c -25.716,-1.8367 -46.077,-3.1232 -47.514,-2.2695 -1.436,0.853 -4.499,7.278 -6.806,14.2784 -4.933,14.9677 -9.439,18.8891 -11.594,13.1199 -0.85,-2.2763 0.62,-9.1942 3.268,-15.3731 2.647,-6.1774 4.196,-11.894 3.443,-12.7024 -0.755,-0.8077 -9.549,-0.9449 -18.134,-1.6691 -18.482,-1.559 -14.762,-7.456 0.807,-5.5075 8.675,1.0856 19.096,0.7341 20.523,0.3134 1.425,-0.4206 3.971,-5.5873 5.654,-11.4806 1.684,-5.8941 4.097,-11.2799 5.36,-11.97 2.144,-1.1699 8.975,-8.7041 3.796,7.5984 l -5.531,17.4087 46.44,2.2476 c 26.55,1.285 48.783,1.3561 49.378,0.8493 0.598,-0.5068 4.526,-9.8193 8.734,-20.6939 l 6.655,-18.4658 -10.109,-0.7076 c -6.1,-0.427 -44.919,-1.1181 -86.253,-3.2169 -85.671,-4.3502 -82.249,-3.2585 -71.891,-22.9453 3.345,-6.3614 6.083,-12.1357 6.083,-12.8295 0,-0.6952 -4.569,-1.5942 -10.156,-1.998 l -10.158,-0.7347 -7.805,22.5335 c -15.803,45.6203 -37.374,100.6642 -39.685,101.2674 -5.875,0.7878 -7.772,-6.022 -6.757,-9.3618 z m 286.154,-34.9647 c 5.329,-10.7913 5.255,-10.9644 -4.331,-9.8595 -10.51,1.2116 -12.948,-3.6879 -7.411,-14.8954 2.139,-4.3313 3.89,-8.3727 3.89,-8.9802 -10.658,-2.5109 -18.669,-2.3817 -30.254,-2.848 l -6.512,15.8611 c -4.124,10.0438 -8.339,22.2155 -8.339,23.5599 0,1.5314 7.309,2.2339 23.345,3.3928 l 25.621,1.8527 z m 9.781,-22.2457 c 5.824,-7.8928 4.601,-10.9848 -4.604,-11.6508 -5.038,-0.3644 -8.304,0.5616 -8.324,2.3588 -0.01,1.6277 -0.676,5.312 -1.461,8.1864 -1.208,4.4247 -0.498,5.2945 4.635,5.6662 3.583,0.2592 7.575,-1.6088 9.754,-4.5606 z m 70.983,0.6054 c 0.859,-5.323 1.103,-10.1735 0.54,-10.7782 -0.563,-0.6046 -13.871,-1.2765 -29.575,-1.4934 l -28.55,-0.395 -2.485,6.9529 c -1.369,3.8237 -2.488,7.8593 -2.488,8.9678 0,1.1086 13.724,3.008 30.495,4.2203 l 30.496,2.2054 z m -186.149,-26.5477 29.213,0.6382 4.992,-9.9164 c 2.748,-5.453 4.527,-10.2896 3.956,-10.746 -0.572,-0.4565 -22.895,-1.5139 -49.607,-2.3457 -26.71,-0.8347 -56.788,-2.5143 -66.838,-3.7332 l -18.272,-2.2171 -3.64,10.4218 c -2.003,5.7327 -3.643,11.442 -3.643,12.6871 0,2.1572 27.694,3.547 103.839,5.2113 z m 63.267,-3.9355 c 7.356,-15.2708 7.776,-14.5811 -1.37,-14.6119 -5.708,-0.019 -4.079,-8.7513 3.083,-8.5366 8.314,0.2491 7.918,2.9409 16.813,-18.9731 4.933,-12.1475 8.595,-22.4853 8.138,-22.9753 -0.457,-0.4893 -13.162,-2.5194 -28.232,-4.5102 l -27.405,-3.62 -2.683,10.462 c -1.476,5.7538 -4.362,11.7348 -6.416,13.2888 -2.7,2.047 -14.948,2.1398 -44.377,0.3338 l -40.645,-2.4932 -2.893,11.1229 -2.891,11.1235 18.199,-0.23 c 10.009,-0.1263 33.656,0.2293 52.551,0.7909 31.4,0.9325 34.813,1.4372 39.731,5.8663 5.231,4.7117 5.286,5.1959 1.98,17.5916 -3.892,14.5924 -2.267,13.1497 5.862,13.7383 4.793,0.3462 5.844,1.4099 10.555,-8.3678 z m 68.589,-8.5756 1.722,-5.3004 -28.091,-0.3001 c -15.451,-0.1658 -24.932,-2.0174 -25.148,-1.8439 -0.217,0.1745 -2.601,5.7553 -5.297,12.4015 l -4.373,11.6838 47.921,3.2494 c 10.387,1.2103 5.113,2.7693 13.266,-19.8903 z m -273.701,-26.986 c 7.946,0.5748 9.021,-0.1234 11.286,-7.3422 1.379,-4.3882 1.912,-8.6136 1.189,-9.3906 -0.725,-0.777 -7.433,-1.8542 -14.906,-2.3946 -12.672,-0.9165 -13.747,-0.5557 -15.946,5.3617 -1.297,3.4893 -3.179,8.3201 -4.183,10.7344 -1.638,3.9413 -1.028,4.2874 5.977,3.3928 4.29,-0.5477 11.752,-0.7098 16.583,-0.3615 z m 63.551,1.6351 c 1.34,-1.5321 2.802,-4.8914 3.251,-7.4656 0.763,-4.3597 -0.694,-4.841 -21.435,-7.0647 -23.69,-2.5392 -26.204,-1.684 -26.277,8.9452 -0.04,5.128 0.753,5.385 20.996,6.8492 13.947,1.0085 21.852,0.5828 23.465,-1.2641 z m 13.356,-36.4634 c 2.366,-6.4067 3.909,-12.0153 3.429,-12.4629 -2.476,-2.3114 -49.718,-7.3546 -48.425,-5.1697 0.793,1.3416 -0.16,6.9245 -2.119,12.4074 -1.959,5.4822 -3.577,10.7672 -3.597,11.7429 -0.02,0.9756 10.416,2.5297 23.19,3.4535 l 23.222,1.6789 z m 66.069,11.81 c 16.298,-1.2699 22.959,-4.5489 22.959,-11.2974 0,-2.9065 -75.426,-13.8139 -77.137,-11.1564 -0.477,0.7412 -1.576,5.7261 -2.442,11.0768 l -1.574,9.7288 20.579,1.4883 c 11.318,0.8179 28.245,0.8902 37.615,0.1592 z m 174.465,180.2075 c -0.588,-0.5747 -9.932,-2.2427 -20.764,-3.7069 -27.856,-3.7682 -30.703,-8.1126 -5.618,-8.5727 20.174,-0.371 36.47,3.5557 35.496,8.5501 -0.71,3.6309 -6.703,6.0839 -9.114,3.7295 z m -422.763,-200.2375 c -61.63,-21.0787 -74.089,-23.1722 -85.179,-27.4524 -12.05,-4.6505 -26.245,-8.6332 -18.056,-21.0374 5.313,-7.4195 5.631,-6.7114 12.85,-16.6133 7.219,-9.9018 31.99,-40.2283 52.358,-67.3198 l 36.431,-48.4572 c 2.536,-3.3722 11.21,-8.5979 16.881,-5.998 8.617,3.9506 31.549,10.5579 69.298,18.9137 8.823,1.9528 10.697,1.0533 10.697,1.0533 3.866,-7.7243 20.554,-8.5742 26.102,-6.5908 3.434,1.2275 10.536,4.9772 6.255,16.5709 0,0 0.793,1.16 6.06,3.3764 6.121,2.269 11.058,7.0794 13.24,8.8722 5.834,5.2661 -2.446,21.0955 -20.606,46.2046 -9.746,13.4728 -24.36,35.2088 -32.478,48.3034 -8.117,13.0938 -21.661,32.6368 -30.097,43.4274 -18.34,23.4637 -15.697,23.184 -63.756,6.747 z m 54.677,-23.0525 c 20.113,-29.084 37.769,-54.5205 56.895,-84.827 5.926,-9.4776 12.897,-19.0011 15.492,-21.1605 5.545,-4.6176 3.526,-13.2406 -1.441,-13.5999 -1.921,-0.1387 -5.242,3.0862 -7.38,7.1662 -5.212,9.9537 -15.193,19.6306 -19.897,19.2903 -10.563,-0.7646 -11.947,-11.3387 -3.639,-25.2581 4.616,-7.7335 5.433,-8.8793 2.92,-9.4997 l -31.94,-7.8838 c -19.089,-4.7119 -39.895,-9.5608 -46.014,-11.718 -13.32,-4.8191 -9.844,-6.003 -16.957,5.5589 -5.459,8.8706 -51.67,70.7952 -79.13,106.0347 -6.722,8.626 -8.818,14.345 -7.896,15.3258 0.921,0.9807 12.563,6.4686 28.086,10.3252 20.907,5.8507 43.753,13.6194 61.334,18.2824 16.493,4.3605 30.528,8.5114 31.192,9.2234 2.946,3.1585 8.222,0.3741 18.375,-17.2599 z m -39.279,-7.0539 c -3.257,-1.5489 -39.101,-11.4062 -55.904,-16.1035 -22.166,-6.1966 -24.201,-19.7222 15.064,-9.2971 27.185,7.2178 63.145,15.3558 59.859,26.2246 -1.31,4.3335 -10.244,3.3473 -19.019,-0.824 z m 10.797,-19.2129 c -14.775,-6.2285 -32.921,-11.8348 -58.77,-18.1576 -4.886,-1.1954 -7.692,-7.1051 -7.692,-8.4809 0,-4.6679 53.704,5.9532 79.154,15.6549 12.284,4.6826 14.418,10.7448 14.418,14.3991 0,6.1614 -6.264,5.3734 -27.11,-3.4155 z m -30.849,-33.6698 c -15.29,-5.1762 -23.077,-13.9632 -14.18,-13.1519 7.591,0.6931 36.527,8.7984 38.34,10.7395 0.922,0.991 -1.682,4.9245 -3.596,5.9973 -4.1,2.2974 -2.221,2.6253 -20.564,-3.5849 z m 6.595,-17.3327 c -16.055,-4.6869 -16.066,-12.0829 -2.966,-11.0649 12.704,0.988 27.89,5.4099 31.365,9.135 3.326,3.5659 -11.68,6.8103 -28.399,1.9299 z m 33.595,-18.2956 c -36.63,-9.3037 -35.913,-9.4627 -36.721,-11.9159 -2.942,-8.9293 20.846,-5.1918 51.007,3.2111 15.879,4.4239 28.349,12.4343 28.94,13.0689 0.592,0.6354 0.373,2.2405 -0.485,3.5682 -5.566,4.2249 -36.532,-6.3542 -42.741,-7.9323 z m 6.514,-21.5439 c -31.835,-7.7504 -37.467,-18.5549 -10.218,-14.0564 33.546,5.5398 53.126,17.1812 50.98,20.4974 -1.752,2.7094 -5.814,2.0682 -40.762,-6.441 z m 65.15,5.7246 c 6.102,-8.5632 6.64,-11.4237 2.214,-11.7443 -2.787,-0.2015 -13.467,14.9407 -13.467,19.0916 0,3.7383 6.273,-0.3556 11.253,-7.3473 z m 12.283,-27.4671 c 0,-3.7252 -4.484,-5.6027 -10.091,-4.2261 -5.147,1.2641 -5.163,1.3729 -0.57,3.4994 6.627,3.0701 10.661,3.3454 10.661,0.7267 z m 0.17,114.1875 c 0,-2.2807 1.876,-6.8055 4.146,-10.0574 3.347,-4.7921 5.142,-5.4632 9.462,-3.5382 6.384,2.8445 7.183,11.7122 1.183,13.1355 -2.28,0.5404 -5.997,1.8381 -8.259,2.8817 -5.709,2.6348 -6.549,2.323 -6.532,-2.4216 z m 52.104,3.9851 c -1.955,-0.7931 -5.124,-2.0616 -7.041,-2.8189 -6.002,-2.369 1.719,-4.9505 16.788,-5.6099 16.359,-0.7157 23.42,1.6387 23.42,7.8073 0,4.0575 -1.686,4.4358 -14.806,3.3213 -8.144,-0.6915 -16.407,-1.9067 -18.361,-2.6998 z m -23.691,-7.2611 c 0,-3.0533 1.2,-4.646 2.963,-3.9318 1.627,0.6609 2.96,2.6231 2.96,4.3597 0,1.7373 -1.333,3.5068 -2.96,3.9318 -1.763,0.4601 -2.963,-1.3057 -2.963,-4.3597 z m 133.122,12.7229 c -7.66,-2.085 -5.7,-8.6363 3.1,-10.3641 9.964,-1.9564 15.839,0.7938 14.945,6.9989 -0.758,5.2734 -6.861,6.4111 -18.045,3.3652 z m -39.484,-5.8554 c -1.54,-2.6042 3.55,-11.6852 6.433,-11.477 2.163,0.157 2.346,5.4661 0.361,10.4933 -1.618,4.1005 -4.687,4.5445 -6.794,0.9837 z m 15.339,-1.2166 c 0,-5.4917 4.253,-8.3727 7.392,-5.0068 2.974,3.1891 0.09,10.1464 -4.091,9.8441 -1.815,-0.1314 -3.301,-2.3084 -3.301,-4.8373 z m 86.317,7.7387 c -1.582,-4.2371 2.695,-13.2867 6.16,-13.0369 3.616,0.2614 2.659,11.1491 -1.239,14.1016 -2.846,2.1565 -3.794,1.9506 -4.921,-1.0647 z m 56.102,-1.5321 c -5.733,-4.5679 -2.152,-6.0752 14.766,-6.2096 20.399,-0.1606 32.892,3.1081 31.844,8.3369 -0.672,3.3585 -3.952,3.7251 -21.791,2.4354 -12.256,-0.8865 -22.589,-2.786 -24.819,-4.5627 z m -38.179,-5.6253 c 0,-5.5012 6.523,-10.8775 9.329,-7.6891 2.915,3.311 -1.407,12.7097 -5.699,12.3993 -1.998,-0.1438 -3.63,-2.2645 -3.63,-4.7102 z m 13.029,3.0211 c -1.984,-3.3527 0.693,-7.0574 4.879,-6.7551 3.841,0.2783 3.999,0.7449 1.975,5.8722 -1.634,4.1421 -4.693,4.5358 -6.854,0.8829 z m 10.66,-1.5986 c 0,-1.3035 1.067,-2.2916 2.371,-2.1974 1.302,0.094 2.368,1.2371 2.368,2.5399 0,1.3036 -1.066,2.2924 -2.368,2.1982 -1.304,-0.093 -2.371,-1.2379 -2.371,-2.5407 z" fill="#000000" transform="translate(4.7216106,-90.278566) matrix(0.26458333,0,0,0.26458333,-12005.127,246.95588)"/>
</svg>